#!OML:ASF E:\Steps\Project 1\Capture day 1\Session 2\Subject.ASF
:FULLY-SPECIFIED
:DEGREES
82
root 16.8094 19.6736 20.8428 -154.219 -4.91072 176.898
lowerback -30.0563 -2.55865 -8.02048
upperback -0.111177 -1.03513 -0.12215
thorax 15.8475 -1.26426 3.74751
lowerneck -3.52025 -0.905602 -1.00529
upperneck 16.2592 -3.03983 6.10011
head 5.57885 -1.5089 1.86447
rclavicle 1.93815e-015 6.55989e-015
rhumerus -38.1202 -20.1707 -75.8121
rradius 34.7546
rwrist -3.291
rhand -7.69618 -51.7877
rfingers 7.12502
rthumb 18.2012 -80.9561
lclavicle 1.93815e-015 6.55989e-015
lhumerus -29.7891 4.57021 81.6256
lradius 25.4972
lwrist -2.03028
lhand -21.9519 -11.3668
lfingers 7.12502
lthumb 4.4552 18.5664
rfemur -22.5633 3.41639 20.222
rtibia 5.36002
rfoot -18.8897 -0.934942
rtoes -18.0122
lfemur -23.8483 -8.1894 -22.6586
ltibia 8.11532
lfoot -6.36976 -2.37472
ltoes -37.0924
83
root 16.8114 19.6732 20.8431 -154.223 -4.92205 176.889
lowerback -30.0556 -2.56819 -8.04326
upperback -0.111431 -1.04199 -0.104957
thorax 15.8484 -1.26949 3.77602
lowerneck -3.51677 -0.8966 -1.03366
upperneck 16.2731 -3.01979 6.0685
head 5.58161 -1.50235 1.86057
rclavicle -6.65929e-015 2.64384e-014
rhumerus -38.1138 -20.1111 -75.8041
rradius 34.707
rwrist -3.32212
rhand -7.61506 -51.8804
rfingers 7.12502
rthumb 18.2792 -81.0416
lclavicle -6.65929e-015 2.64384e-014
lhumerus -29.8199 4.59618 81.6466
lradius 25.5457
lwrist -2.05045
lhand -21.8583 -11.3133
lfingers 7.12502
lthumb 4.54564 18.618
rfemur -22.5194 3.49958 20.2104
rtibia 5.31529
rfoot -18.847 -1.03186
rtoes -17.6839
lfemur -23.8711 -8.24539 -22.6418
ltibia 8.17682
lfoot -6.40626 -2.31419
ltoes -37.3105
84
root 16.8122 19.6735 20.8439 -154.234 -4.87836 176.873
lowerback -30.0287 -2.53972 -8.08132
upperback -0.105606 -0.991407 -0.110137
thorax 15.8366 -1.24938 3.81254
lowerneck -3.53973 -0.921374 -1.02342
upperneck 16.274 -3.0532 6.06666
head 5.58704 -1.51705 1.85612
rclavicle 4.07509e-015 2.98177e-014
rhumerus -38.1209 -20.1707 -75.7625
rradius 34.6862
rwrist -3.32665
rhand -7.52601 -51.7167
rfingers 7.12502
rthumb 18.3649 -80.8698
lclavicle 4.07509e-015 2.98177e-014
lhumerus -29.7554 4.46474 81.7041
lradius 25.489
lwrist -2.01434
lhand -21.9259 -11.3599
lfingers 7.12502
lthumb 4.48035 18.5727
rfemur -22.4828 3.49793 20.1849
rtibia 5.27907
rfoot -18.8424 -0.978289
rtoes -17.764
lfemur -23.8804 -8.29835 -22.6553
ltibia 8.24545
lfoot -6.50252 -2.23657
ltoes -37.4193
85
root 16.8124 19.6739 20.8445 -154.24 -4.85223 176.901
lowerback -29.9959 -2.51109 -8.04823
upperback -0.119334 -0.967897 -0.12563
thorax 15.8016 -1.23495 3.78798
lowerneck -3.56374 -0.933129 -0.934273
upperneck 16.2636 -3.07715 6.06664
head 5.58809 -1.52323 1.83953
rclavicle -8.15017e-015 1.27222e-014
rhumerus -38.1725 -20.2271 -75.7676
rradius 34.6756
rwrist -3.26122
rhand -7.41081 -51.5354
rfingers 7.12502
rthumb 18.4757 -80.678
lclavicle -8.15017e-015 1.27222e-014
lhumerus -29.7809 4.36494 81.6885
lradius 25.4437
lwrist -2.01076
lhand -22.1218 -11.4211
lfingers 7.12502
lthumb 4.2912 18.5154
rfemur -22.504 3.4321 20.2321
rtibia 5.32383
rfoot -18.9259 -0.873629
rtoes -18.328
lfemur -23.8606 -8.29875 -22.6237
ltibia 8.21426
lfoot -6.54224 -2.19553
ltoes -37.4809
86
root 16.811 19.6737 20.8427 -154.251 -4.86025 176.935
lowerback -30.0335 -2.5013 -7.97925
upperback -0.111678 -0.974896 -0.124873
thorax 15.8289 -1.23372 3.74801
lowerneck -3.55226 -0.954131 -0.864514
upperneck 16.2255 -3.10128 6.02786
head 5.57397 -1.53336 1.81435
rclavicle -1.60022e-014 7.95139e-016
rhumerus -38.1924 -20.2496 -75.7767
rradius 34.6178
rwrist -3.16719
rhand -7.41239 -51.4045
rfingers 7.12502
rthumb 18.4742 -80.5472
lclavicle -1.60022e-014 7.95139e-016
lhumerus -29.8493 4.4474 81.632
lradius 25.4258
lwrist -2.11605
lhand -22.1963 -11.515
lfingers 7.12502
lthumb 4.21926 18.423
rfemur -22.5227 3.26587 20.3233
rtibia 5.37755
rfoot -18.9276 -0.793608
rtoes -18.6878
lfemur -23.8068 -8.38054 -22.5713
ltibia 8.13424
lfoot -6.5076 -2.09306
ltoes -37.5354
87
root 16.8105 19.6732 20.8412 -154.28 -4.87241 176.929
lowerback -30.0377 -2.52624 -7.96433
upperback -0.0948044 -1.01165 -0.107436
thorax 15.8563 -1.24956 3.74416
lowerneck -3.63221 -0.992729 -0.815314
upperneck 16.3119 -3.14903 5.91544
head 5.61443 -1.55859 1.76723
rclavicle -6.55989e-015 -2.20651e-014
rhumerus -38.1368 -20.311 -75.7462
rradius 34.4766
rwrist -3.03668
rhand -7.57082 -51.3531
rfingers 7.12502
rthumb 18.3218 -80.5102
lclavicle -6.55989e-015 -2.20651e-014
lhumerus -29.8332 4.59061 81.5869
lradius 25.3078
lwrist -2.19708
lhand -22.1006 -11.7043
lfingers 7.12502
lthumb 4.31163 18.2318
rfemur -22.4771 3.22261 20.3308
rtibia 5.34655
rfoot -18.8447 -0.794454
rtoes -18.3607
lfemur -23.7781 -8.41291 -22.5761
ltibia 8.16067
lfoot -6.5092 -2.06377
ltoes -37.6157
88
root 16.8129 19.6727 20.8432 -154.268 -4.90438 176.9
lowerback -29.9786 -2.56173 -8.00809
upperback -0.12553 -1.05435 -0.0954461
thorax 15.798 -1.27024 3.76438
lowerneck -3.6414 -0.958922 -0.767974
upperneck 16.3585 -3.10225 5.85012
head 5.62739 -1.5374 1.74152
rclavicle 3.13086e-015 -1.55052e-014
rhumerus -38.1728 -20.3464 -75.7091
rradius 34.3749
rwrist -2.95567
rhand -7.73166 -51.3461
rfingers 7.12502
rthumb 18.167 -80.5177
lclavicle 3.13086e-015 -1.55052e-014
lhumerus -29.8604 4.64931 81.552
lradius 25.2116
lwrist -2.19335
lhand -21.9086 -11.9066
lfingers 7.12502
lthumb 4.49706 18.0256
rfemur -22.4696 3.40864 20.2618
rtibia 5.31439
rfoot -18.8416 -0.920961
rtoes -17.6521
lfemur -23.8348 -8.38495 -22.597
ltibia 8.24037
lfoot -6.5519 -2.11443
ltoes -37.7455
89
root 16.8153 19.6723 20.845 -154.246 -4.88889 176.914
lowerback -29.9622 -2.54685 -8.04035
upperback -0.152703 -1.03196 -0.0778431
thorax 15.7557 -1.26257 3.81066
lowerneck -3.62357 -0.901528 -0.765661
upperneck 16.4086 -3.03117 5.84671
head 5.63727 -1.50435 1.74444
rclavicle 9.93923e-015 1.25234e-014
rhumerus -38.244 -20.4598 -75.6178
rradius 34.2662
rwrist -2.93144
rhand -7.89366 -51.333
rfingers 7.12502
rthumb 18.0112 -80.519
lclavicle 9.93923e-015 1.25234e-014
lhumerus -29.9109 4.66979 81.5601
lradius 25.1698
lwrist -2.30289
lhand -21.71 -11.7623
lfingers 7.12502
lthumb 4.68878 18.1658
rfemur -22.4959 3.5001 20.2615
rtibia 5.29832
rfoot -18.8675 -0.893108
rtoes -17.1121
lfemur -23.8839 -8.24609 -22.5961
ltibia 8.26508
lfoot -6.54937 -2.2492
ltoes -37.4842
90
root 16.8159 19.673 20.8456 -154.279 -4.86251 176.942
lowerback -29.9418 -2.52009 -8.02801
upperback -0.141467 -1.00155 -0.0657878
thorax 15.7565 -1.24806 3.83072
lowerneck -3.60313 -0.924295 -0.688045
upperneck 16.3022 -3.02905 5.72415
head 5.598 -1.50366 1.69362
rclavicle -2.03754e-015 5.56597e-015
rhumerus -38.2405 -20.5902 -75.5371
rradius 34.1229
rwrist -2.91484
rhand -8.01876 -51.3951
rfingers 7.12502
rthumb 17.8908 -80.5921
lclavicle -2.03754e-015 5.56597e-015
lhumerus -29.8893 4.74087 81.5558
lradius 25.0514
lwrist -2.47451
lhand -21.6228 -11.543
lfingers 7.12502
lthumb 4.77298 18.3832
rfemur -22.4936 3.38617 20.3276
rtibia 5.33849
rfoot -18.9519 -0.758717
rtoes -17.571
lfemur -23.8816 -8.0664 -22.6028
ltibia 8.30887
lfoot -6.50359 -2.44243
ltoes -36.7735
91
root 16.8171 19.6737 20.8468 -154.314 -4.85439 176.968
lowerback -29.894 -2.49919 -7.99412
upperback -0.138034 -0.98738 -0.0705518
thorax 15.7367 -1.23775 3.81435
lowerneck -3.58863 -0.898874 -0.694122
upperneck 16.2676 -2.99238 5.74805
head 5.58381 -1.48452 1.70454
rclavicle -4.52235e-015 -1.13307e-014
rhumerus -38.2739 -20.6533 -75.4957
rradius 34.0513
rwrist -2.88783
rhand -7.94179 -51.3881
rfingers 7.12502
rthumb 17.9648 -80.5784
lclavicle -4.52235e-015 -1.13307e-014
lhumerus -29.884 4.81893 81.4971
lradius 24.929
lwrist -2.52435
lhand -21.5925 -11.8041
lfingers 7.12502
lthumb 4.80222 18.1215
rfemur -22.5142 3.29031 20.4034
rtibia 5.44229
rfoot -19.0556 -0.723324
rtoes -18.1535
lfemur -23.8768 -8.04914 -22.5724
ltibia 8.35757
lfoot -6.49187 -2.41923
ltoes -36.6236
92
root 16.8186 19.6723 20.8472 -154.271 -4.82088 177.007
lowerback -29.9178 -2.47376 -7.95808
upperback -0.167863 -0.971055 -0.0653168
thorax 15.71 -1.22819 3.80656
lowerneck -3.45825 -0.868699 -0.824893
upperneck 16.2728 -2.97413 5.89679
head 5.56545 -1.48065 1.7749
rclavicle 4.96962e-016 -3.04141e-014
rhumerus -38.3467 -20.7179 -75.4337
rradius 33.9922
rwrist -2.83386
rhand -7.84725 -51.3941
rfingers 7.12502
rthumb 18.0558 -80.576
lclavicle 4.96962e-016 -3.04141e-014
lhumerus -29.9207 4.82096 81.4777
lradius 24.856
lwrist -2.44443
lhand -21.5972 -11.9104
lfingers 7.12502
lthumb 4.79771 18.0152
rfemur -22.6135 3.18839 20.4906
rtibia 5.52727
rfoot -19.0965 -0.640365
rtoes -18.4558
lfemur -23.9274 -8.07079 -22.5157
ltibia 8.36438
lfoot -6.57532 -2.28487
ltoes -37.2285
93
root 16.82 19.6706 20.8457 -154.223 -4.80454 176.99
lowerback -29.965 -2.49257 -7.99873
upperback -0.179438 -0.982381 -0.0564182
thorax 15.7195 -1.23782 3.83224
lowerneck -3.49351 -0.932059 -0.80128
upperneck 16.3403 -3.06919 5.86529
head 5.59547 -1.52797 1.75493
rclavicle -7.10655e-015 -3.18055e-015
rhumerus -38.3643 -20.7228 -75.4206
rradius 33.896
rwrist -2.7896
rhand -7.87983 -51.2581
rfingers 7.12502
rthumb 18.0245 -80.4429
lclavicle -7.10655e-015 -3.18055e-015
lhumerus -29.9236 4.88819 81.4576
lradius 24.7574
lwrist -2.50745
lhand -21.4117 -11.611
lfingers 7.12502
lthumb 4.97686 18.3106
rfemur -22.6713 3.15394 20.4916
rtibia 5.55642
rfoot -19.0985 -0.637805
rtoes -18.9181
lfemur -23.9614 -8.03176 -22.5383
ltibia 8.36695
lfoot -6.68068 -2.29981
ltoes -37.5122
